<?xml version="1.0" encoding="utf-8"?>
<svg width="165px" height="795px" viewbox="0 0 165 795" version="1.1" xmlns:xlink="http://www.w3.org/1999/xlink" xmlns="http://www.w3.org/2000/svg">
  <defs>
    <path d="M0 0L165 0L165 794L0 794L0 0Z" id="path_1" />
    <clipPath id="clip_1">
      <use xlink:href="#path_1" />
    </clipPath>
  </defs>
  <g id="Rectangle-3">
    <use stroke="none" fill="#FFFFFF" xlink:href="#path_1" fill-rule="evenodd" />
    <g clip-path="url(#clip_1)">
      <use xlink:href="#path_1" fill="none" stroke="#000000" stroke-width="10" />
    </g>
  </g>
  <g id="Ad-Template--165x794" transform="translate(5.999878 734.0001)">
    <g id="Ad-Template">
      <path d="M30.492 21.2L30.492 4.876L27.06 4.876L27.06 10.618Q25.784 9.188 23.518 9.188Q21.846 9.188 20.493 9.936Q19.14 10.684 18.37 12.07Q17.6 13.456 17.6 15.282Q17.6 17.108 18.37 18.494Q19.14 19.88 20.493 20.628Q21.846 21.376 23.518 21.376Q25.938 21.376 27.214 19.836L27.214 21.2L30.492 21.2ZM105.622 4.876L109.054 4.876L109.054 21.2L105.622 21.2L105.622 4.876ZM4.818 17.9L11.968 17.9L13.332 21.2L17.072 21.2L10.186 5.8L6.666 5.8L-0.198 21.2L3.454 21.2L4.818 17.9ZM43.318 8.704L38.39 8.704L38.39 5.8L51.81 5.8L51.81 8.704L46.882 8.704L46.882 21.2L43.318 21.2L43.318 8.704ZM133.452 20.628Q132.946 21.002 132.209 21.189Q131.472 21.376 130.658 21.376Q128.546 21.376 127.391 20.298Q126.236 19.22 126.236 17.13L126.236 12.268L124.41 12.268L124.41 9.628L126.236 9.628L126.236 6.746L129.668 6.746L129.668 9.628L132.616 9.628L132.616 12.268L129.668 12.268L129.668 17.086Q129.668 17.834 130.053 18.241Q130.438 18.648 131.142 18.648Q131.956 18.648 132.528 18.208L133.452 20.628ZM65.01 16.25Q65.076 15.392 65.076 15.326Q65.076 13.478 64.273 12.081Q63.47 10.684 62.062 9.936Q60.654 9.188 58.916 9.188Q57.134 9.188 55.693 9.969Q54.252 10.75 53.427 12.147Q52.602 13.544 52.602 15.282Q52.602 17.042 53.438 18.428Q54.274 19.814 55.814 20.595Q57.354 21.376 59.356 21.376Q62.568 21.376 64.24 19.462L62.414 17.482Q61.798 18.076 61.083 18.351Q60.368 18.626 59.444 18.626Q58.102 18.626 57.2 17.988Q56.298 17.35 56.056 16.25L65.01 16.25ZM82.522 9.188Q84.744 9.188 86.053 10.497Q87.362 11.806 87.362 14.424L87.362 21.2L83.93 21.2L83.93 14.952Q83.93 13.544 83.347 12.851Q82.764 12.158 81.686 12.158Q80.476 12.158 79.772 12.939Q79.068 13.72 79.068 15.26L79.068 21.2L75.636 21.2L75.636 14.952Q75.636 12.158 73.392 12.158Q72.204 12.158 71.5 12.939Q70.796 13.72 70.796 15.26L70.796 21.2L67.364 21.2L67.364 9.364L70.642 9.364L70.642 10.728Q71.302 9.98 72.259 9.584Q73.216 9.188 74.36 9.188Q75.614 9.188 76.626 9.683Q77.638 10.178 78.254 11.124Q78.98 10.2 80.091 9.694Q81.202 9.188 82.522 9.188ZM100.441 9.947Q99.088 9.188 97.438 9.188Q94.996 9.188 93.72 10.728L93.72 9.364L90.442 9.364L90.442 25.468L93.874 25.468L93.874 19.946Q95.172 21.376 97.438 21.376Q99.088 21.376 100.441 20.617Q101.794 19.858 102.564 18.483Q103.334 17.108 103.334 15.282Q103.334 13.456 102.564 12.081Q101.794 10.706 100.441 9.947ZM121.242 10.497Q119.768 9.188 117.018 9.188Q115.588 9.188 114.235 9.562Q112.882 9.936 111.914 10.618L113.146 13.016Q113.784 12.51 114.697 12.213Q115.61 11.916 116.556 11.916Q117.92 11.916 118.602 12.521Q119.284 13.126 119.284 14.248L116.556 14.248Q113.96 14.248 112.717 15.194Q111.474 16.14 111.474 17.79Q111.474 18.824 112.002 19.638Q112.53 20.452 113.531 20.914Q114.532 21.376 115.896 21.376Q118.536 21.376 119.504 19.726L119.504 21.2L122.716 21.2L122.716 14.446Q122.716 11.806 121.242 10.497ZM146.916 16.25Q146.982 15.392 146.982 15.326Q146.982 13.478 146.179 12.081Q145.376 10.684 143.968 9.936Q142.56 9.188 140.822 9.188Q139.04 9.188 137.599 9.969Q136.158 10.75 135.333 12.147Q134.508 13.544 134.508 15.282Q134.508 17.042 135.344 18.428Q136.18 19.814 137.72 20.595Q139.26 21.376 141.262 21.376Q144.474 21.376 146.146 19.462L144.32 17.482Q143.704 18.076 142.989 18.351Q142.274 18.626 141.35 18.626Q140.008 18.626 139.106 17.988Q138.204 17.35 137.962 16.25L146.916 16.25ZM8.404 9.298L10.846 15.194L5.962 15.194L8.404 9.298ZM56.98 12.444Q57.772 11.784 58.938 11.784Q60.082 11.784 60.874 12.455Q61.666 13.126 61.842 14.248L56.012 14.248Q56.188 13.104 56.98 12.444ZM138.886 12.444Q139.678 11.784 140.844 11.784Q141.988 11.784 142.78 12.455Q143.572 13.126 143.748 14.248L137.918 14.248Q138.094 13.104 138.886 12.444ZM26.268 17.669Q25.41 18.56 24.112 18.56Q22.792 18.56 21.934 17.669Q21.076 16.778 21.076 15.282Q21.076 13.786 21.934 12.895Q22.792 12.004 24.112 12.004Q25.41 12.004 26.268 12.895Q27.126 13.786 27.126 15.282Q27.126 16.778 26.268 17.669ZM99.011 17.669Q98.164 18.56 96.844 18.56Q95.524 18.56 94.677 17.669Q93.83 16.778 93.83 15.282Q93.83 13.786 94.677 12.895Q95.524 12.004 96.844 12.004Q98.164 12.004 99.011 12.895Q99.858 13.786 99.858 15.282Q99.858 16.778 99.011 17.669ZM118.316 18.659Q117.634 19.066 116.754 19.066Q115.852 19.066 115.335 18.681Q114.818 18.296 114.818 17.636Q114.818 16.25 116.93 16.25L119.284 16.25L119.284 17.46Q118.998 18.252 118.316 18.659Z" />
    </g>
    <g id="165x794">
      <path d="M16.896 38.542Q18.37 38.542 19.58 39.136Q20.79 39.73 21.494 40.819Q22.198 41.908 22.198 43.338Q22.198 44.878 21.428 46.044Q20.658 47.21 19.327 47.837Q17.996 48.464 16.368 48.464Q13.134 48.464 11.308 46.484Q9.482 44.504 9.482 40.83Q9.482 38.212 10.472 36.342Q11.462 34.472 13.233 33.504Q15.004 32.536 17.336 32.536Q18.568 32.536 19.701 32.811Q20.834 33.086 21.626 33.592L20.306 36.21Q19.162 35.44 17.424 35.44Q15.466 35.44 14.322 36.584Q13.178 37.728 13.09 39.906Q14.454 38.542 16.896 38.542ZM68.728 32.536Q71.962 32.536 73.788 34.505Q75.614 36.474 75.614 40.17Q75.614 42.788 74.635 44.658Q73.656 46.528 71.874 47.496Q70.092 48.464 67.76 48.464Q66.528 48.464 65.406 48.189Q64.284 47.914 63.492 47.408L64.812 44.79Q65.934 45.56 67.694 45.56Q69.652 45.56 70.796 44.405Q71.94 43.25 72.028 41.072Q70.642 42.458 68.2 42.458Q66.726 42.458 65.516 41.864Q64.306 41.27 63.602 40.181Q62.898 39.092 62.898 37.662Q62.898 36.122 63.668 34.956Q64.438 33.79 65.769 33.163Q67.1 32.536 68.728 32.536ZM6.798 32.8L6.798 48.2L3.234 48.2L3.234 35.66L0.154 35.66L0.154 32.8L6.798 32.8ZM33.583 39.884Q32.032 38.586 28.776 38.586L27.522 38.586L27.764 35.66L34.188 35.66L34.188 32.8L24.794 32.8L24.002 41.468L27.94 41.468Q29.92 41.468 30.723 41.974Q31.526 42.48 31.526 43.47Q31.526 44.416 30.756 44.944Q29.986 45.472 28.644 45.472Q27.434 45.472 26.29 45.109Q25.146 44.746 24.266 44.086L22.858 46.814Q23.958 47.606 25.531 48.035Q27.104 48.464 28.732 48.464Q30.844 48.464 32.285 47.771Q33.726 47.078 34.43 45.923Q35.134 44.768 35.134 43.36Q35.134 41.182 33.583 39.884ZM61.732 35.11L61.732 32.8L49.39 32.8L49.39 38.212L52.558 38.212L52.558 35.704L57.662 35.704L52.14 48.2L56.012 48.2L61.732 35.11ZM88.924 44.966L91.432 44.966L91.432 42.062L88.924 42.062L88.924 39.18L85.558 39.18L85.558 42.062L81.422 42.062L88.154 32.8L84.414 32.8L77.154 42.568L77.154 44.966L85.448 44.966L85.448 48.2L88.924 48.2L88.924 44.966ZM68.992 39.796Q70.158 39.796 70.895 39.147Q71.632 38.498 71.632 37.486Q71.632 36.474 70.917 35.836Q70.202 35.198 68.948 35.198Q67.804 35.198 67.089 35.814Q66.374 36.43 66.374 37.486Q66.374 38.542 67.089 39.169Q67.804 39.796 68.992 39.796ZM44.836 48.2L42.24 44.57L39.556 48.2L35.816 48.2L40.37 42.238L35.97 36.364L39.82 36.364L42.328 39.818L44.902 36.364L48.554 36.364L44.154 42.15L48.73 48.2L44.836 48.2ZM16.17 45.802Q17.314 45.802 18.029 45.186Q18.744 44.57 18.744 43.514Q18.744 42.458 18.029 41.831Q17.314 41.204 16.126 41.204Q14.96 41.204 14.212 41.853Q13.464 42.502 13.464 43.514Q13.464 44.526 14.19 45.164Q14.916 45.802 16.17 45.802Z" />
    </g>
  </g>
</svg>