<?xml version="1.0" encoding="utf-8"?>
<svg width="1510px" height="1510px" viewbox="0 0 1510 1510" version="1.1" xmlns:xlink="http://www.w3.org/1999/xlink" xmlns="http://www.w3.org/2000/svg">
  <defs>
    <rect width="1510" height="1510" id="slice_1" />
    <clipPath id="clip_1">
      <use xlink:href="#slice_1" clip-rule="evenodd" />
    </clipPath>
  </defs>
  <g id="Slice-2" clip-path="url(#clip_1)">
    <use xlink:href="#slice_1" stroke="none" fill="none" />
    <path d="M634.71 0L632.906 0L528.505 104.401L390.919 47.4114L333.929 184.997L185.008 184.997L185.008 333.918L47.4223 390.908L104.412 528.494L-5.44009e-15 632.906L0 634.688L104.412 739.1L47.4223 876.686L185.008 933.675L185.008 1082.6L333.929 1082.6L390.919 1220.18L528.504 1163.19L632.895 1267.58L634.72 1267.58L739.111 1163.19L876.697 1220.18L933.686 1082.6L1082.61 1082.6L1082.61 933.675L1220.19 876.685L1163.2 739.1L1267.58 634.72L1267.58 632.874L1163.2 528.493L1220.19 390.908L1082.61 333.918L1082.61 184.997L933.686 184.997L876.697 47.4113L739.111 104.401L634.71 -1.77636e-15L634.71 0Z" transform="translate(129.96875 152.23438)" id="Rectangle-Difference" fill="#424242" fill-rule="evenodd" stroke="none" />
    <path d="M491.4 5.67926C489.46 3.84265 487.465 1.95309 485.417 -3.05176e-05L422.871 62.546L285.285 5.55615L228.296 143.142L79.3743 143.142L79.3743 292.063L-6.10352e-05 324.941C18.0868 328.242 34.6338 331.552 50.1087 334.648C140.571 352.748 194.394 363.516 304.994 322.15C439.861 271.708 493.489 217.549 523.754 120.381C543.973 55.4694 527.225 39.6084 491.4 5.67926Z" transform="translate(235.60278 198.0896)" id="New-shape-Difference-Difference" fill="#494949" fill-rule="evenodd" stroke="#494949" stroke-width="1" />
    <path d="M410.499 274.273C462.425 157.749 532.024 61.8462 639.505 5.34058e-05L667.822 68.3616L530.237 125.351L530.237 274.273L410.499 274.273ZM196.129 358.758L324.325 411.858L354.218 339.691C312.54 360.383 255.12 360.431 196.129 358.758ZM0 378.736C47.0756 354.159 113.753 356.222 180.07 358.275C181.126 358.307 182.181 358.34 183.236 358.372L81.4365 460.172L0 378.736Z" transform="translate(682.3406 964.5582)" id="New-shape-2-Difference-Difference" fill="#494949" fill-rule="evenodd" stroke="#494949" stroke-width="1" />
    <path d="M198.584 309.819C240.304 249.634 263.584 138.901 252.451 98.7724C237.15 43.6257 217.564 20.516 180.14 5.16658C142.716 -10.1823 145.94 11.0721 102.754 37.3754C59.5667 63.6789 24.5548 49.8115 7.39261 110.38C-9.76953 170.949 4.51648 225.583 34.1048 279.649C63.693 333.716 182.969 332.344 198.584 309.819Z" transform="translate(352.0808 847.7737)" id="New-shape-8" fill="#494949" fill-rule="evenodd" stroke="#494949" stroke-width="1" />
    <path d="M44.7069 65.5923C19.0286 101.29 2.2517 116.292 0.0886678 157.883C-2.07423 199.475 36.0551 231.957 36.0551 231.957C36.0551 231.957 50.7579 286.057 85.728 289.099C120.698 292.141 131.717 274.202 175.936 244.124C220.154 214.045 241.01 213.193 262.601 168.786C284.193 124.379 284.516 106.96 262.3 66.4962C240.084 26.0329 213.612 19.784 173.737 6.93281C133.863 -5.91838 135.059 0.426552 102.801 15.0915C70.5437 29.7563 70.3849 29.8942 44.7069 65.5923Z" transform="translate(937.3894 407.41138)" id="New-shape-9" fill="#494949" fill-rule="evenodd" stroke="#494949" stroke-width="1" />
    <g id="Group-5" transform="translate(296.3767 31.224854)">
      <path d="M671.464 37.1631L676.859 39.9119C717.143 60.4378 731.31 108.723 708.668 147.857C626.673 289.573 440.966 613.72 326.973 837.444C243.567 1001.14 198.553 1111.07 175.045 1176.31C160.231 1217.43 119.705 1235.67 80.7649 1215.83L70.3877 1210.54C31.5137 1190.73 22.7464 1147.53 47.3547 1111.5C85.6752 1055.4 146.82 956.651 229.201 794.968C343.411 570.817 498.439 225.705 565.437 74.8721C583.789 33.5555 631.182 16.6385 671.464 37.1631Z" transform="translate(0 169.45532)" id="Rectangle-2" fill="#3AA6D4" fill-rule="evenodd" stroke="none" />
      <path d="M307.022 54.5595L506.947 221.916L700.275 321.394L956.66 385.584C1002.2 396.985 1038.5 444.365 1032.64 490.942C1025.44 548.124 1010.27 624.274 978.308 686.793C948.957 744.197 905.443 790.109 868.83 821.928C833.397 852.722 770.196 849.768 732.603 821.654L526.036 667.174L329.984 569.225L81.785 497.856C36.6695 484.883 -0.722539 436.159 5.24399 389.596C11.5933 340.046 25.4806 275.801 55.6202 216.66C87.7158 153.681 138.242 96.4901 178.571 56.701C211.988 23.7314 271.025 24.4271 307.022 54.5595Z" transform="translate(38.084473 0.006591797)" id="Rectangle" fill="#74D5FF" fill-rule="evenodd" stroke="none" />
      <path d="M307.022 54.5595C341.737 83.6196 377.357 113.436 377.357 113.436C377.357 113.436 279.391 201.754 227.24 304.105C175.09 406.456 168.755 522.839 168.755 522.839L81.7882 497.845C36.6709 484.878 -0.722539 436.159 5.24399 389.596C11.5933 340.046 25.4806 275.801 55.6202 216.66C87.7158 153.681 138.242 96.4901 178.571 56.701C211.988 23.7314 271.026 24.4271 307.022 54.5595Z" transform="translate(38.097412 0)" id="Rectangle-Copy" fill="#3AA6D4" fill-rule="evenodd" stroke="none" />
      <path d="M304.464 54.9007C336.823 82.2783 369.148 109.627 369.148 109.627C369.148 109.627 271.442 197.568 219.295 299.913C167.148 402.258 161.094 516.745 161.094 516.745L82.6534 492.479C37.8067 478.605 -1.92313 429.232 2.06664 382.459C6.21543 333.821 17.8636 270.99 47.6851 212.473C79.9128 149.235 132.338 93.0202 174.254 54.3214C208.745 22.4773 268.626 24.5799 304.464 54.9007Z" transform="matrix(-0.5877853 -0.809017 -0.809017 0.5877853 1217.4885 598.89795)" id="Rectangle-Copy-2" fill="#3AA6D4" fill-rule="evenodd" stroke="none" />
    </g>
  </g>
</svg>