<svg width="1511" height="1510" viewBox="0 0 1511 1510" fill="none" xmlns="http://www.w3.org/2000/svg">
<rect width="1511" height="1510" fill="white"/>
<path fill-rule="evenodd" clip-rule="evenodd" d="M1006.8 199.646L1063.79 337.231H1212.71V486.153L1350.3 543.142L1293.31 680.728L1397.69 785.108V786.955L1293.31 891.335L1350.3 1028.92L1212.71 1085.91V1234.83H1063.79L1006.8 1372.42L869.215 1315.43L764.824 1419.82H762.999L658.608 1315.43L521.022 1372.42L464.033 1234.83H315.111V1085.91L177.526 1028.92L234.515 891.335L130.103 786.923V785.14L234.515 680.728L177.526 543.142L315.111 486.153V337.231H464.032L521.022 199.646L658.608 256.636L763.009 152.234H764.813L869.214 256.635L1006.8 199.646Z" fill="#424242"/>
<path fill-rule="evenodd" clip-rule="evenodd" d="M315.112 351.195V490.152L235.738 523.03C253.824 526.331 270.371 529.642 285.846 532.738L285.846 532.738C376.308 550.837 430.132 561.606 540.732 520.239C675.598 469.797 729.226 415.638 759.492 318.471C779.71 253.559 762.962 237.698 727.137 203.769L727.097 203.73C725.17 201.906 723.188 200.029 721.154 198.089L658.608 260.635L521.023 203.645L464.033 341.231H327.865L315.112 351.195Z" fill="#494949"/>
<path d="M315.112 490.152L315.303 490.614L315.612 490.486V490.152H315.112ZM315.112 351.195L314.804 350.801L314.612 350.951V351.195H315.112ZM235.738 523.03L235.546 522.568L233.979 523.217L235.648 523.522L235.738 523.03ZM285.846 532.738L285.748 533.228L285.764 533.231L285.781 533.234L285.846 532.738ZM285.846 532.738L285.944 532.248L285.928 532.244L285.911 532.242L285.846 532.738ZM540.732 520.239L540.557 519.771L540.557 519.771L540.732 520.239ZM759.492 318.471L759.014 318.322L759.014 318.322L759.492 318.471ZM727.137 203.769L726.793 204.131L726.793 204.132L727.137 203.769ZM727.097 203.73L727.44 203.367L727.44 203.367L727.097 203.73ZM721.154 198.089L721.499 197.728L721.146 197.391L720.801 197.736L721.154 198.089ZM658.608 260.635L658.417 261.097L658.726 261.225L658.962 260.989L658.608 260.635ZM521.023 203.645L521.214 203.184L520.752 202.992L520.561 203.454L521.023 203.645ZM464.033 341.231V341.731H464.367L464.495 341.422L464.033 341.231ZM327.865 341.231V340.731H327.692L327.557 340.837L327.865 341.231ZM315.612 490.152V351.195H314.612V490.152H315.612ZM235.929 523.492L315.303 490.614L314.92 489.69L235.546 522.568L235.929 523.492ZM285.944 532.248C270.47 529.151 253.919 525.84 235.827 522.538L235.648 523.522C253.73 526.822 270.273 530.132 285.748 533.228L285.944 532.248ZM285.911 532.242L285.911 532.242L285.781 533.234L285.781 533.234L285.911 532.242ZM540.557 519.771C485.298 540.439 444.251 548.072 405.734 548.288C367.206 548.504 331.185 541.299 285.944 532.248L285.748 533.228C330.969 542.276 367.091 549.505 405.74 549.288C444.401 549.072 485.566 541.406 540.907 520.708L540.557 519.771ZM759.014 318.322C743.9 366.845 722.966 404.595 688.995 436.513C655.015 468.439 607.96 494.561 540.557 519.771L540.907 520.708C608.37 495.476 655.563 469.297 689.68 437.241C723.806 405.178 744.817 367.264 759.969 318.619L759.014 318.322ZM726.793 204.132C744.731 221.12 757.774 233.486 763.863 249.677C769.941 265.84 769.112 285.901 759.014 318.322L759.969 318.619C770.089 286.128 770.996 265.803 764.799 249.325C758.612 232.875 745.368 220.346 727.481 203.406L726.793 204.132ZM726.753 204.093L726.793 204.131L727.481 203.406L727.44 203.367L726.753 204.093ZM720.809 198.451C722.844 200.391 724.826 202.269 726.753 204.093L727.44 203.367C725.514 201.543 723.533 199.666 721.499 197.728L720.809 198.451ZM658.962 260.989L721.508 198.443L720.801 197.736L658.255 260.282L658.962 260.989ZM520.831 204.107L658.417 261.097L658.8 260.173L521.214 203.184L520.831 204.107ZM464.495 341.422L521.485 203.837L520.561 203.454L463.571 341.04L464.495 341.422ZM327.865 341.731H464.033V340.731H327.865V341.731ZM327.557 340.837L314.804 350.801L315.419 351.589L328.172 341.625L327.557 340.837Z" fill="#494949"/>
<path fill-rule="evenodd" clip-rule="evenodd" d="M550.799 1157.59C592.519 1097.41 615.8 986.674 604.666 946.546C589.366 891.399 569.78 868.29 532.355 852.94C494.931 837.591 498.156 858.846 454.969 885.149C411.782 911.453 376.77 897.585 359.608 958.154C342.446 1018.72 356.732 1073.36 386.32 1127.42C415.908 1181.49 535.184 1180.12 550.799 1157.59Z" fill="#494949" stroke="#494949"/>
<path fill-rule="evenodd" clip-rule="evenodd" d="M982.231 473.004C956.553 508.702 939.776 523.704 937.613 565.295C935.45 606.886 973.579 639.368 973.579 639.368C973.579 639.368 988.282 693.469 1023.25 696.51C1058.22 699.552 1069.24 681.613 1113.46 651.535C1157.68 621.457 1178.53 620.604 1200.13 576.198C1221.72 531.791 1222.04 514.371 1199.82 473.908C1177.61 433.444 1151.14 427.195 1111.26 414.344C1071.39 401.493 1072.58 407.838 1040.33 422.503C1008.07 437.168 1007.91 437.306 982.231 473.004Z" fill="#494949" stroke="#494949"/>
<path fill-rule="evenodd" clip-rule="evenodd" d="M860.81 278.114C879.512 236.024 929.631 218.306 970.669 239.216V239.216C1011.71 260.128 1026.82 311.121 1003.76 350.995C921.056 493.969 736.823 815.684 623.484 1038.12C542.014 1198.02 497.174 1306.62 473.228 1372.38C458.68 1412.33 410.684 1433.53 372.801 1414.23V1414.23C334.519 1394.72 323.512 1342.32 347.574 1306.72C386.08 1249.76 445.939 1152.21 525.712 995.648C639.28 772.758 793.209 430.261 860.81 278.114Z" fill="#D47B3A"/>
<path fill-rule="evenodd" clip-rule="evenodd" d="M524.921 76.5385C553.933 48.9089 598.381 49.598 629.102 75.314L841.543 253.147L1034.87 352.625L1308.87 421.225C1346.92 430.752 1373.43 465.121 1369.32 504.128C1363.16 562.53 1348.37 648.666 1312.9 718.025C1277.37 787.518 1221.08 840.17 1181.41 871.366C1154.52 892.505 1117.46 890.471 1090.07 869.989L860.632 698.405L664.58 600.456L393.972 522.644C358.616 512.477 333.874 480.685 337.274 444.053C342.051 392.605 355.106 316.785 390.216 247.892C425.518 178.62 483.118 116.351 524.921 76.5385Z" fill="#FF9E58"/>
<path fill-rule="evenodd" clip-rule="evenodd" d="M524.934 76.5319C553.946 48.9023 598.394 49.5915 629.115 75.3074L711.965 144.661C711.965 144.661 613.999 232.979 561.849 335.33C509.698 437.681 503.364 554.064 503.364 554.064L393.996 522.632C358.634 512.469 333.887 480.673 337.288 444.038C342.065 392.59 355.121 316.775 390.229 247.885C425.531 178.613 483.131 116.344 524.934 76.5319Z" fill="#D47B3A"/>
<path fill-rule="evenodd" clip-rule="evenodd" d="M1369.63 502.312C1373.33 463.593 1346.73 429.822 1308.95 420.566L1208.33 395.913C1208.33 395.913 1194.61 526.649 1142.47 628.994C1090.32 731.339 1001.26 803.53 1001.26 803.53L1090.12 870.034C1117.37 890.426 1154.21 892.562 1181.04 871.615C1220.98 840.426 1277.94 787.368 1314.08 716.433C1350 645.912 1364.1 560.207 1369.63 502.312Z" fill="#D47B3A"/>
</svg>
