<?xml version="1.0" encoding="utf-8"?>
<svg width="3636px" height="3636px" viewbox="0 0 3636 3636" version="1.1" xmlns:xlink="http://www.w3.org/1999/xlink" xmlns="http://www.w3.org/2000/svg">
  <defs>
    <rect width="3635.2998" height="3635.3" id="slice_1" />
    <clipPath id="clip_1">
      <use xlink:href="#slice_1" clip-rule="evenodd" />
    </clipPath>
  </defs>
  <g id="Slice-2" clip-path="url(#clip_1)">
    <use xlink:href="#slice_1" stroke="none" fill="none" />
    <g id="Group-2" transform="translate(578.042 26.003906)">
      <path d="M1675.7 45.3989L1898.5 158.921C1947.71 183.994 1965.01 242.972 1937.26 290.722C1766.37 584.783 1200.57 1564.79 866.754 2219.93C645.66 2653.86 526.334 2945.27 464.018 3118.22C424.747 3227.22 317.319 3275.57 214.094 3222.97L186.588 3208.96C83.5384 3156.45 60.2975 3041.91 125.531 2946.41C227.113 2797.69 389.196 2535.93 607.576 2107.33C941.768 1451.44 1407.8 404.849 1546.28 91.5099C1568.61 40.9953 1626.49 20.3259 1675.7 45.3989Z" transform="translate(0 317.0791)" id="Rectangle-2" fill="#3AA6D4" fill-rule="evenodd" stroke="none" />
      <path d="M889.964 227.306L1275.39 454.613L1787.87 718.313L2202.92 897.58Q2212.85 901.867 2222.54 906.656Q2232.23 911.445 2241.66 916.725Q2251.1 922.005 2260.25 927.761Q2269.4 933.517 2278.24 939.734Q2287.08 945.952 2295.6 952.614Q2304.11 959.276 2312.27 966.366Q2320.43 973.456 2328.22 980.955Q2336 988.454 2343.4 996.342Q2350.79 1004.23 2357.77 1012.49Q2364.74 1020.74 2371.29 1029.35Q2377.84 1037.95 2383.93 1046.88Q2390.03 1055.8 2395.66 1065.03Q2401.29 1074.26 2406.44 1083.76Q2411.59 1093.27 2416.25 1103.02Q2420.91 1112.78 2425.06 1122.76Q2429.21 1132.74 2432.84 1142.92Q2436.48 1153.11 2439.58 1163.46Q2442.69 1173.81 2445.26 1184.31Q2447.83 1194.81 2449.87 1205.43Q2451.9 1216.05 2453.38 1226.76Q2454.87 1237.46 2455.8 1248.23Q2456.73 1259 2457.11 1269.81Q2457.5 1280.61 2457.32 1291.42Q2457.15 1302.23 2456.42 1313.01Q2455.69 1323.8 2454.42 1334.53Q2453.14 1345.27 2451.31 1355.92Q2449.48 1366.58 2447.11 1377.13Q2444.74 1387.67 2441.83 1398.08Q2438.92 1408.5 2435.49 1418.74Q2432.05 1428.99 2428.09 1439.05Q2424.13 1449.11 2419.66 1458.96Q2415.19 1468.8 2410.23 1478.4L2312.08 1668.11Q2307.1 1677.74 2301.64 1687.11Q2296.19 1696.47 2290.27 1705.56Q2284.36 1714.65 2278 1723.42Q2271.64 1732.2 2264.84 1740.65Q2258.05 1749.11 2250.85 1757.21Q2243.65 1765.31 2236.05 1773.04Q2228.45 1780.78 2220.48 1788.12Q2212.5 1795.47 2204.17 1802.41Q2195.84 1809.34 2187.18 1815.86Q2178.51 1822.37 2169.53 1828.45Q2160.55 1834.52 2151.28 1840.14Q2142.01 1845.76 2132.47 1850.91Q2122.93 1856.06 2113.14 1860.73Q2103.36 1865.4 2093.35 1869.58Q2083.35 1873.75 2073.15 1877.42Q2062.94 1881.09 2052.57 1884.25Q2042.2 1887.41 2031.69 1890.05Q2021.17 1892.68 2010.54 1894.79Q1999.9 1896.9 1989.18 1898.48Q1978.45 1900.06 1967.66 1901.1Q1956.87 1902.14 1946.04 1902.64Q1935.21 1903.14 1924.37 1903.11Q1913.52 1903.07 1902.7 1902.49Q1891.87 1901.91 1881.09 1900.79Q1870.3 1899.67 1859.59 1898.02Q1848.88 1896.37 1838.26 1894.18Q1827.64 1892 1817.14 1889.28Q1806.64 1886.57 1796.3 1883.34Q1785.95 1880.11 1775.77 1876.36Q1765.6 1872.62 1755.62 1868.37Q1745.65 1864.13 1735.9 1859.39Q1726.14 1854.65 1716.64 1849.43L1325.99 1634.92L806.286 1375.28L403.142 1182.75Q393.339 1178.07 383.781 1172.9Q374.223 1167.74 364.935 1162.1Q355.647 1156.47 346.651 1150.38Q337.656 1144.29 328.975 1137.75Q320.294 1131.22 311.95 1124.26Q303.606 1117.31 295.619 1109.94Q287.633 1102.58 280.023 1094.82Q272.414 1087.07 265.2 1078.95Q257.987 1070.82 251.187 1062.35Q244.388 1053.88 238.02 1045.08Q231.651 1036.27 225.73 1027.17Q219.808 1018.06 214.349 1008.67Q208.889 999.274 203.904 989.621Q198.919 979.969 194.422 970.079Q189.925 960.19 185.927 950.089Q181.928 939.987 178.439 929.699Q174.949 919.411 171.977 908.961Q169.005 898.512 166.557 887.928Q164.11 877.343 162.193 866.649Q160.277 855.956 158.896 845.18Q157.515 834.404 156.674 823.573Q155.832 812.742 155.531 801.882Q155.231 791.023 155.472 780.161Q155.714 769.3 156.496 758.465Q157.279 747.629 158.601 736.846Q159.923 726.063 161.782 715.359Q163.64 704.655 166.03 694.058Q168.419 683.46 171.335 672.995Q174.25 662.529 177.684 652.222Q181.117 641.915 185.06 631.792Q189.004 621.669 193.447 611.756Q197.89 601.842 202.822 592.162L301.403 398.686Q306.276 389.123 311.63 379.821Q316.984 370.519 322.805 361.502Q328.626 352.485 334.9 343.776Q341.173 335.068 347.883 326.69Q354.592 318.313 361.72 310.289Q368.848 302.264 376.375 294.614Q383.903 286.963 391.811 279.707Q399.719 272.45 407.987 265.606Q416.255 258.762 424.861 252.349Q433.467 245.936 442.389 239.969Q451.311 234.003 460.525 228.499Q469.739 222.996 479.222 217.969Q488.706 212.943 498.433 208.406Q508.16 203.87 518.105 199.835Q528.051 195.801 538.19 192.278Q548.328 188.756 558.633 185.756Q568.938 182.755 579.383 180.284Q589.827 177.812 600.384 175.877Q610.941 173.941 621.583 172.547Q632.225 171.152 642.924 170.302Q653.623 169.452 664.352 169.148Q675.08 168.845 685.811 169.089Q696.541 169.332 707.244 170.123Q717.948 170.914 728.598 172.249Q739.247 173.585 749.815 175.462Q760.382 177.339 770.84 179.752Q781.299 182.165 791.62 185.108Q801.941 188.052 812.099 191.517Q822.257 194.983 832.225 198.962Q842.193 202.942 851.945 207.424Q861.698 211.906 871.209 216.88Q880.719 221.854 889.964 227.306Z" transform="translate(166.4043 0)" id="Rectangle" fill="#74D5FF" fill-rule="evenodd" stroke="none" />
      <path d="M582.633 45.5929L877.141 218.281L369.676 1166.61L78.6659 1027.42Q76.7529 1026.51 74.8878 1025.5Q73.0228 1024.49 71.2104 1023.39Q69.398 1022.29 67.6428 1021.1Q65.8876 1019.91 64.1938 1018.63Q62.5001 1017.36 60.8721 1016Q59.2442 1014.64 57.686 1013.2Q56.1278 1011.76 54.6433 1010.25Q53.1587 1008.73 51.7516 1007.15Q50.3444 1005.56 49.0181 1003.91Q47.6918 1002.25 46.4496 1000.53Q45.2075 998.813 44.0526 997.035Q42.8977 995.256 41.8329 993.422Q40.7681 991.589 39.7961 989.704Q38.8241 987.819 37.9473 985.888Q37.0704 983.958 36.291 981.985Q35.5116 980.013 34.8314 978.005Q34.1513 975.996 33.5722 973.956Q32.993 971.916 32.5163 969.85Q32.0396 967.784 31.6666 965.696Q31.2935 963.609 31.025 961.505Q30.7565 959.402 30.5933 957.287Q30.43 955.173 30.3724 953.053Q30.3147 950.933 30.3629 948.813Q30.411 946.693 30.5648 944.578Q30.7186 942.463 30.9777 940.359Q31.2368 938.254 31.6005 936.165Q31.9642 934.076 32.4316 932.007Q32.899 929.939 33.469 927.896Q34.039 925.854 34.7101 923.842Q35.3812 921.831 36.1518 919.855Q36.9225 917.879 37.7906 915.945Q38.6588 914.01 39.6223 912.121L463.922 80.2942Q464.905 78.366 465.985 76.4903Q467.066 74.6147 468.24 72.7965Q469.415 70.9783 470.68 69.2222Q471.946 67.4661 473.299 65.7767Q474.652 64.0873 476.09 62.469Q477.527 60.8507 479.045 59.3076Q480.563 57.7645 482.158 56.3007Q483.752 54.8369 485.419 53.4562Q487.086 52.0754 488.821 50.7813Q490.556 49.4872 492.355 48.2831Q494.154 47.079 496.011 45.968Q497.869 44.857 499.781 43.842Q501.693 42.827 503.654 41.9106Q505.615 40.9942 507.62 40.1788Q509.625 39.3634 511.669 38.6511Q513.713 37.9388 515.791 37.3315Q517.868 36.7242 519.974 36.2234Q522.08 35.7226 524.208 35.3297Q526.337 34.9367 528.483 34.6526Q530.629 34.3685 532.786 34.194Q534.944 34.0195 537.107 33.955Q539.271 33.8906 541.435 33.9363Q543.599 33.982 545.758 34.1379Q547.917 34.2937 550.065 34.5592Q552.213 34.8247 554.345 35.1992Q556.477 35.5737 558.587 36.0562Q560.697 36.5387 562.78 37.128Q564.863 37.7173 566.913 38.4119Q568.963 39.1064 570.975 39.9044Q572.987 40.7024 574.956 41.6018Q576.925 42.5012 578.846 43.4996Q580.766 44.498 582.633 45.5929Z" transform="translate(165.48438 0.18701172)" id="Rectangle-8" fill="#3AA6D4" fill-rule="evenodd" stroke="none" />
      <path d="M781.745 136.758L468.93 0L0 967.958L283.653 1121.58Q285.518 1122.59 287.43 1123.51Q289.343 1124.42 291.299 1125.24Q293.255 1126.06 295.249 1126.78Q297.244 1127.5 299.272 1128.12Q301.299 1128.74 303.356 1129.26Q305.412 1129.78 307.492 1130.19Q309.571 1130.61 311.669 1130.92Q313.766 1131.23 315.877 1131.44Q317.988 1131.64 320.106 1131.74Q322.224 1131.84 324.345 1131.84Q326.465 1131.83 328.583 1131.72Q330.7 1131.61 332.81 1131.39Q334.919 1131.18 337.016 1130.86Q339.112 1130.54 341.189 1130.11Q343.266 1129.68 345.32 1129.16Q347.374 1128.63 349.399 1128Q351.423 1127.37 353.414 1126.64Q355.405 1125.91 357.357 1125.08Q359.309 1124.25 361.217 1123.32Q363.125 1122.4 364.984 1121.38Q366.844 1120.36 368.65 1119.25Q370.457 1118.14 372.206 1116.94Q373.955 1115.74 375.641 1114.45Q377.328 1113.17 378.949 1111.8Q380.57 1110.43 382.12 1108.99Q383.67 1107.54 385.147 1106.02Q386.623 1104.5 388.022 1102.9Q389.421 1101.31 390.738 1099.65Q392.055 1097.98 393.288 1096.26Q394.521 1094.53 395.667 1092.75Q396.812 1090.96 397.867 1089.12Q398.922 1087.28 399.884 1085.4L823.448 253.194Q824.43 251.265 825.312 249.289Q826.195 247.312 826.975 245.293Q827.756 243.274 828.433 241.218Q829.11 239.162 829.681 237.075Q830.252 234.987 830.717 232.873Q831.181 230.759 831.537 228.623Q831.893 226.488 832.14 224.338Q832.387 222.188 832.524 220.027Q832.662 217.867 832.689 215.703Q832.716 213.538 832.633 211.375Q832.549 209.212 832.356 207.057Q832.163 204.901 831.861 202.757Q831.558 200.614 831.147 198.489Q830.736 196.364 830.217 194.262Q829.698 192.161 829.073 190.089Q828.448 188.016 827.718 185.979Q826.988 183.941 826.155 181.943Q825.322 179.945 824.389 177.992Q823.456 176.039 822.424 174.136Q821.393 172.233 820.266 170.385Q819.139 168.537 817.92 166.748Q816.7 164.96 815.391 163.236Q814.082 161.512 812.687 159.857Q811.292 158.202 809.814 156.62Q808.337 155.038 806.781 153.534Q805.225 152.029 803.594 150.606Q801.963 149.182 800.262 147.844Q798.561 146.505 796.795 145.255Q795.028 144.004 793.199 142.846Q791.371 141.687 789.486 140.623Q787.601 139.558 785.665 138.592Q783.728 137.625 781.745 136.758L781.745 136.758Z" transform="translate(1919.4932 904.1863)" id="Rectangle-10" fill="#3AA6D4" fill-rule="evenodd" stroke="none" />
    </g>
  </g>
</svg>