<?xml version="1.0" encoding="utf-8"?>
<svg width="180px" height="16px" viewbox="0 0 180 16" version="1.1" xmlns:xlink="http://www.w3.org/1999/xlink" xmlns="http://www.w3.org/2000/svg">
  <path d="M173.534 15.5332C176.9 15.5332 179.525 13.5943 179.525 10.9364C179.525 7.7775 176.562 6.57928 174.623 5.795C173.621 5.38107 172.804 5.06518 172.804 4.52053C172.804 4.00857 173.283 3.63821 174.449 3.63821C175.484 3.63821 176.638 4.06303 177.27 4.54232C177.336 4.58589 177.412 4.60768 177.488 4.60768C177.902 4.60768 178.403 3.93232 178.828 3.26786C179.144 2.78857 179.438 2.21125 179.438 1.86268C179.438 1.75375 179.416 1.65571 179.351 1.60125C178.305 0.697142 176.486 0 174.449 0C171.018 0 168.752 1.96071 168.752 4.61857C168.752 7.49428 171.541 8.65982 173.458 9.4441C174.547 9.9016 175.462 10.2937 175.462 10.9364C175.462 11.492 174.896 11.9386 173.534 11.9386C172.325 11.9386 170.887 11.1979 170.212 10.6096C170.168 10.577 170.125 10.5552 170.07 10.5552C169.743 10.5552 169.242 11.1434 168.796 11.7534C168.425 12.2653 168.077 12.7773 168.077 13.1259C168.077 13.213 168.098 13.2784 168.153 13.3437C169.318 14.6836 171.464 15.5332 173.534 15.5332L173.534 15.5332ZM157.086 15.4025C158.023 15.4025 158.959 15.3916 158.959 14.9559L158.959 10.163L160.953 10.163L163.415 15.0757C163.578 15.4025 164.569 15.4025 165.56 15.4025C166.421 15.4025 167.292 15.4025 167.292 15.0104C167.292 14.9559 167.271 14.8905 167.238 14.8252L164.319 9.34608C165.626 8.56179 166.519 7.08036 166.519 5.1959C166.519 2.17858 164.297 0.22876 161.781 0.22876L155.517 0.22876C155.354 0.22876 155.223 0.370367 155.223 0.544652L155.223 14.9559C155.223 15.3916 156.149 15.4025 157.086 15.4025L157.086 15.4025ZM161.225 6.5684L158.959 6.5684L158.959 3.84518L161.225 3.84518C161.977 3.84518 162.576 4.45518 162.576 5.20679C162.576 5.9584 161.977 6.5684 161.225 6.5684L161.225 6.5684ZM142.391 15.3045L152.326 15.3045C152.794 15.3045 152.805 14.3895 152.805 13.4963C152.805 12.5813 152.794 11.6771 152.315 11.6771L145.833 11.688L145.833 9.11732L151.204 9.11732C151.65 9.11732 151.661 8.32215 151.661 7.52697C151.661 6.74268 151.65 5.94751 151.204 5.94751L145.833 5.94751L145.833 3.84519L152.326 3.84519C152.794 3.84519 152.805 2.94108 152.805 2.02608C152.805 1.12197 152.794 0.22876 152.326 0.22876L142.391 0.239653C142.228 0.239653 142.097 0.370367 142.097 0.544652L142.097 14.9886C142.097 15.152 142.228 15.3045 142.391 15.3045L142.391 15.3045ZM130.583 15.4025C131.52 15.4025 132.446 15.4025 132.446 14.945L132.446 10.163L135.267 10.163C137.784 10.163 140.006 8.22411 140.006 5.1959C140.006 2.17858 137.784 0.22876 135.267 0.22876L129.004 0.22876C128.841 0.22876 128.71 0.370367 128.71 0.544652L128.71 14.9559C128.71 15.4025 129.636 15.4025 130.583 15.4025L130.583 15.4025ZM134.712 6.5684L132.446 6.5684L132.446 3.84518L134.712 3.84518C135.463 3.84518 136.063 4.45518 136.063 5.20679C136.063 5.9584 135.463 6.5684 134.712 6.5684L134.712 6.5684ZM116.543 15.3044L126.466 15.3044C126.956 15.3044 126.956 14.4003 126.956 13.4962C126.956 12.5812 126.956 11.688 126.477 11.688L119.985 11.6771L119.985 0.577314C119.985 0.130707 119.059 0.130707 118.122 0.130707C117.174 0.130707 116.248 0.130707 116.248 0.577314L116.248 14.9886C116.248 15.1519 116.379 15.3044 116.543 15.3044L116.543 15.3044ZM103.417 15.3045L113.351 15.3045C113.819 15.3045 113.83 14.3895 113.83 13.4963C113.83 12.5813 113.819 11.6771 113.34 11.6771L106.859 11.688L106.859 9.11732L112.229 9.11732C112.676 9.11732 112.687 8.32215 112.687 7.52697C112.687 6.74268 112.676 5.94751 112.229 5.94751L106.859 5.94751L106.859 3.84519L113.351 3.84519C113.819 3.84519 113.83 2.94108 113.83 2.02608C113.83 1.12197 113.819 0.22876 113.351 0.22876L103.417 0.239653C103.253 0.239653 103.123 0.370367 103.123 0.544652L103.123 14.9886C103.123 15.152 103.253 15.3045 103.417 15.3045L103.417 15.3045ZM87.6112 15.4025C88.548 15.4025 89.4739 15.3916 89.4739 14.945L89.4739 9.29162L96.0096 9.29162L96.0096 14.9559C96.0096 15.3916 96.9464 15.4025 97.8723 15.4025C98.8091 15.4025 99.7458 15.3916 99.7458 14.945L99.7458 0.566449C99.7458 0.130735 98.8091 0.119843 97.8723 0.119843C96.9464 0.119843 96.0096 0.130735 96.0096 0.566449L96.0096 5.6752L89.4739 5.6752L89.4739 0.566449C89.4739 0.130735 88.548 0.119843 87.6112 0.119843C86.6635 0.119843 85.7376 0.130735 85.7376 0.566449L85.7376 14.9559C85.7376 15.3916 86.6635 15.4025 87.6112 15.4025L87.6112 15.4025ZM71.2501 15.5332C75.5746 15.5332 79.0821 12.0584 79.0821 7.7666C79.0821 3.48571 75.5746 0.0108948 71.2501 0.0108948C66.9257 0.0108948 63.4182 3.48571 63.4182 7.7666C63.4182 12.0584 66.9257 15.5332 71.2501 15.5332L71.2501 15.5332ZM71.2501 11.7207C69.0933 11.7207 67.4594 9.97786 67.4594 7.76661C67.4594 5.54447 69.0933 3.82339 71.2501 3.82339C73.4069 3.82339 75.03 5.54447 75.03 7.76661C75.03 9.97786 73.4069 11.7207 71.2501 11.7207L71.2501 11.7207ZM59.3334 15.4025C60.2701 15.4025 61.196 15.3916 61.196 14.945L61.196 0.566449C61.196 0.130735 60.2701 0.119843 59.3334 0.119843C58.3857 0.119843 57.4598 0.130735 57.4598 0.566449L57.4598 14.945C57.4598 15.3916 58.3857 15.4025 59.3334 15.4025L59.3334 15.4025ZM42.1335 15.3045L47.1116 15.3045C51.4796 15.3045 55.0198 12.4179 55.0198 7.76661C55.0198 3.10447 51.4796 0.22876 47.1116 0.22876L42.1335 0.22876C41.9702 0.22876 41.8394 0.370367 41.8394 0.53376L41.8394 14.9886C41.8394 15.152 41.9702 15.3045 42.1335 15.3045L42.1335 15.3045ZM46.8719 11.6771L45.5757 11.6771L45.5757 3.84518L46.8719 3.84518C49.1594 3.84518 51.0112 5.38108 51.0112 7.76661C51.0112 10.1521 49.1594 11.6771 46.8719 11.6771L46.8719 11.6771ZM32.5152 15.5223C36.3603 15.5223 38.6696 13.2893 38.6696 10.6205L38.6696 0.577342C38.6696 0.119843 37.7328 0.119843 36.796 0.119843C35.8702 0.119843 34.9225 0.119843 34.9225 0.566449L34.9225 9.52037C34.9225 10.98 33.8114 11.7098 32.5152 11.7098C31.0773 11.7098 30.1078 10.882 30.1078 9.52037L30.1078 0.577342C30.1078 0.119843 29.1711 0.119843 28.2343 0.119843C27.3084 0.119843 26.3716 0.119843 26.3716 0.566449L26.3716 10.6205C26.3716 13.1913 28.5393 15.5223 32.5152 15.5223L32.5152 15.5223ZM18.8446 15.4025C19.7814 15.4025 20.7182 15.4025 20.7182 14.945L20.7182 3.84519L24.7159 3.84519C25.1625 3.84519 25.1625 2.94108 25.1625 2.02608C25.1625 1.12197 25.1625 0.22876 24.7159 0.22876L12.9952 0.22876C12.5486 0.22876 12.5486 1.12197 12.5486 2.02608C12.5486 2.94108 12.5486 3.84519 12.9843 3.84519L16.982 3.84519L16.982 14.9559C16.982 15.4025 17.9187 15.4025 18.8446 15.4025L18.8446 15.4025ZM5.45732 15.5332C8.82321 15.5332 11.4484 13.5943 11.4484 10.9364C11.4484 7.7775 8.48553 6.57928 6.5466 5.795C5.54446 5.38107 4.7275 5.06518 4.7275 4.52053C4.7275 4.00857 5.20678 3.63821 6.37232 3.63821C7.40714 3.63821 8.56178 4.06303 9.19357 4.54232C9.25892 4.58589 9.33517 4.60768 9.41142 4.60768C9.82535 4.60768 10.3264 3.93232 10.7512 3.26786C11.0671 2.78857 11.3612 2.21125 11.3612 1.86268C11.3612 1.75375 11.3395 1.65571 11.2741 1.60125C10.2284 0.697142 8.40928 0 6.37232 0C2.94107 0 0.675357 1.96071 0.675357 4.61857C0.675357 7.49428 3.46393 8.65982 5.38107 9.4441C6.47035 9.9016 7.38535 10.2937 7.38535 10.9364C7.38535 11.492 6.81892 11.9386 5.45732 11.9386C4.24821 11.9386 2.81036 11.1979 2.135 10.6096C2.09143 10.577 2.04786 10.5552 1.99339 10.5552C1.66661 10.5552 1.16553 11.1434 0.718928 11.7534C0.348571 12.2653 0 12.7773 0 13.1259C0 13.213 0.0217857 13.2784 0.0762499 13.3437C1.24178 14.6836 3.38768 15.5332 5.45732 15.5332L5.45732 15.5332Z" id="STUDIO-HELPERS" fill="#ECF0F1" stroke="none" />
</svg>